<svg xmlns="http://www.w3.org/2000/svg" width="42" height="42" fill="none" viewBox="0 0 42 42">
  <path fill="#000" d="M26.88 12.285a1.05 1.05 0 0 1-1.05 1.05h-6.783a1.05 1.05 0 0 1 0-2.1h6.783a1.05 1.05 0 0 1 1.05 1.05Zm-11.512-1.05h-1.082a1.05 1.05 0 0 0 0 2.1h1.082a1.05 1.05 0 1 0 0-2.1Zm10.462 4.2h-6.783a1.05 1.05 0 0 0 0 2.1h6.783a1.05 1.05 0 0 0 0-2.1Zm-10.462 0h-1.082a1.05 1.05 0 0 0 0 2.1h1.082a1.05 1.05 0 1 0 0-2.1Zm10.462 4.2h-6.783a1.05 1.05 0 0 0 0 2.1h6.783a1.05 1.05 0 0 0 0-2.1Zm-10.462 0h-1.082a1.05 1.05 0 0 0 0 2.1h1.082a1.05 1.05 0 1 0 0-2.1Zm18.545 10.414a6 6 0 1 1-5.998-6.002 6.006 6.006 0 0 1 5.998 6.002Zm-2.1 0a3.9 3.9 0 1 0-7.8 0 3.9 3.9 0 0 0 7.8 0Zm-12.745-3.284h-7.833a1.05 1.05 0 0 1-1.05-1.05V9.103a1.05 1.05 0 0 1 1.05-1.05h17.682a1.05 1.05 0 0 1 1.05 1.05v12.37a1.05 1.05 0 0 0 2.1 0V9.103a3.154 3.154 0 0 0-3.15-3.15H11.235a3.154 3.154 0 0 0-3.15 3.15v16.611a3.154 3.154 0 0 0 3.15 3.15h7.833a1.05 1.05 0 1 0 0-2.1Zm8.847 0a1.05 1.05 0 0 0-1.05 1.05v1.184h-.556a1.05 1.05 0 0 0 0 2.1h1.606a1.05 1.05 0 0 0 1.05-1.05v-2.235a1.05 1.05 0 0 0-1.05-1.05Z"/>
</svg>
