<svg xmlns="http://www.w3.org/2000/svg" width="26" height="26" fill="none" viewBox="0 0 26 26">
  <path fill="#000" d="M3.753 0C1.693 0 0 1.703 0 3.762v18.476C0 24.297 1.694 26 3.753 26h18.494C24.307 26 26 24.297 26 22.238V3.762C26 1.703 24.306 0 22.247 0H3.753Zm0 2.602h5.345v9.102c.01 1.151 1.4 1.723 2.217.911l1.691-1.677 1.679 1.677c.816.812 2.207.24 2.217-.91V2.601h5.345c.654 0 1.153.506 1.153 1.16v18.476a1.14 1.14 0 0 1-1.153 1.163H3.753c-.654 0-1.15-.509-1.15-1.163V3.762c0-.654.496-1.16 1.15-1.16Zm7.946 0H14.3v5.965l-.383-.383a1.3 1.3 0 0 0-1.833 0l-.386.383V2.602Z"/>
</svg>
